<?xml version="1.0" encoding="UTF-8" standalone="no"?>
<svg
   xmlns:dc="http://purl.org/dc/elements/1.1/"
   xmlns:cc="http://creativecommons.org/ns#"
   xmlns:rdf="http://www.w3.org/1999/02/22-rdf-syntax-ns#"
   xmlns:svg="http://www.w3.org/2000/svg"
   xmlns="http://www.w3.org/2000/svg"
   xmlns:xlink="http://www.w3.org/1999/xlink"
   xmlns:sodipodi="http://sodipodi.sourceforge.net/DTD/sodipodi-0.dtd"
   xmlns:inkscape="http://www.inkscape.org/namespaces/inkscape"
   height="16"
   version="1.1"
   width="16"
   id="svg2"
   inkscape:version="0.91 r13725"
   sodipodi:docname="pin-pressed.svg">
  <metadata
     id="metadata20">
    <rdf:RDF>
      <cc:Work
         rdf:about="">
        <dc:format>image/svg+xml</dc:format>
        <dc:type
           rdf:resource="http://purl.org/dc/dcmitype/StillImage" />
        <dc:title></dc:title>
      </cc:Work>
    </rdf:RDF>
  </metadata>
  <defs
     id="defs18">
    <linearGradient
       inkscape:collect="always"
       id="linearGradient4172">
      <stop
         style="stop-color:#f4f4f4;stop-opacity:1"
         offset="0"
         id="stop4174" />
      <stop
         style="stop-color:#939393;stop-opacity:1"
         offset="1"
         id="stop4176" />
    </linearGradient>
    <linearGradient
       inkscape:collect="always"
       id="linearGradient4163">
      <stop
         style="stop-color:#e4e7e8;stop-opacity:1;"
         offset="0"
         id="stop4165" />
      <stop
         style="stop-color:#6a787c;stop-opacity:1"
         offset="1"
         id="stop4167" />
    </linearGradient>
    <linearGradient
       inkscape:collect="always"
       xlink:href="#linearGradient4163"
       id="linearGradient4169"
       x1="3.5307093"
       y1="7.7333355"
       x2="3.5621233"
       y2="9.0593891"
       gradientUnits="userSpaceOnUse"
       gradientTransform="matrix(0.70710678,-0.70710678,0.70710678,0.70710678,-4.8560191,9.2847371)" />
    <linearGradient
       inkscape:collect="always"
       xlink:href="#linearGradient4172"
       id="linearGradient4178"
       x1="7.2672734"
       y1="4.5352058"
       x2="7.2256227"
       y2="12.257519"
       gradientUnits="userSpaceOnUse"
       gradientTransform="matrix(0.70710678,-0.70710678,0.70710678,0.70710678,-4.8560191,9.2847371)" />
  </defs>
  <sodipodi:namedview
     pagecolor="#ffffff"
     bordercolor="#666666"
     borderopacity="1"
     objecttolerance="10"
     gridtolerance="10"
     guidetolerance="10"
     inkscape:pageopacity="0"
     inkscape:pageshadow="2"
     inkscape:window-width="958"
     inkscape:window-height="647"
     id="namedview16"
     showgrid="false"
     inkscape:zoom="25.639986"
     inkscape:cx="7.2867954"
     inkscape:cy="8.2455843"
     inkscape:window-x="583"
     inkscape:window-y="318"
     inkscape:window-maximized="0"
     inkscape:current-layer="svg2" />
  <path
     style="fill:#e4e7e8;fill-opacity:1;stroke:#202020;stroke-width:0.95978349;stroke-linejoin:round;stroke-miterlimit:4;stroke-dasharray:none;stroke-opacity:1"
     d="M 1.9609322,13.328504 1.5093231,14.683331 2.8641506,14.231722 3.767369,13.328504 5.575187,11.520686 6.4784054,10.617468 6.0267962,10.165859 5.575187,9.7142492 4.6719686,10.617468 2.8641506,12.425285 1.9609322,13.328504 Z"
     id="path4149"
     inkscape:connector-curvature="0" />
  <path
     style="fill:url(#linearGradient4169);fill-opacity:1;stroke:none;stroke-width:1.19161165;stroke-miterlimit:4;stroke-dasharray:none;stroke-opacity:1"
     d="M 1.9609322,13.328504 1.5093231,14.683331 2.8641506,14.231722 C 4.0689022,13.02697 5.2736538,11.822219 6.4784054,10.617468 6.1773326,10.316395 5.8762598,10.015322 5.575187,9.7142492 4.3704354,10.919001 3.1656838,12.123752 1.9609322,13.328504 Z"
     id="path4159"
     inkscape:connector-curvature="0"
     sodipodi:nodetypes="cccccc" />
  <path
     style="fill:none;fill-opacity:1;stroke:#171717;stroke-width:0.95982862;stroke-miterlimit:4;stroke-dasharray:none;stroke-opacity:1"
     d="m 3.1334589,7.2725211 2.4417281,2.4417281 0.4516092,0.4516098 2.893337,2.893336 c 0.228115,-0.765647 0.309154,-1.58857 0.178158,-2.351958 L 12.711165,7.0943635 c 0.549282,0.00723 1.144229,-0.1217701 1.686283,-0.3024543 L 11.899097,4.2935577 11.447488,3.8419484 9.4007452,1.7952058 C 9.2203312,2.3375274 9.0909732,2.932121 9.0982912,3.4814897 L 5.4854176,7.0943634 c -0.7632582,-0.1308601 -1.5863515,-0.05 -2.3519587,0.1781577 z"
     id="path4147"
     inkscape:connector-curvature="0" />
  <path
     style="fill:url(#linearGradient4178);fill-opacity:1;stroke:none;stroke-width:1.19161165;stroke-miterlimit:4;stroke-dasharray:none;stroke-opacity:1"
     d="m 3.1334589,7.2725211 c 1.9288915,1.9288915 3.857783,3.8577829 5.7866743,5.7866739 0.228115,-0.765647 0.309154,-1.58857 0.178158,-2.351958 L 12.711165,7.0943635 c 0.549282,0.00723 1.144229,-0.1217701 1.686283,-0.3024543 C 12.731881,5.1263414 11.066313,3.4607736 9.4007452,1.7952058 9.2203312,2.3375274 9.0909732,2.932121 9.0982912,3.4814897 L 5.4854176,7.0943634 c -0.7632582,-0.1308601 -1.5863515,-0.05 -2.3519587,0.1781577 z"
     id="path4157"
     inkscape:connector-curvature="0"
     sodipodi:nodetypes="ccccccccc" />
  <path
     style="fill:none;fill-rule:evenodd;stroke:#202020;stroke-width:0.5;stroke-linecap:butt;stroke-linejoin:miter;stroke-miterlimit:4;stroke-dasharray:none;stroke-opacity:1"
     d="M 8.8294212,3.4447543 12.717959,7.3332928"
     id="path4158"
     inkscape:connector-curvature="0"
     sodipodi:nodetypes="cc" />
</svg>
