<?xml version="1.0" encoding="UTF-8" standalone="no"?>
<svg
   xmlns:dc="http://purl.org/dc/elements/1.1/"
   xmlns:cc="http://creativecommons.org/ns#"
   xmlns:rdf="http://www.w3.org/1999/02/22-rdf-syntax-ns#"
   xmlns:svg="http://www.w3.org/2000/svg"
   xmlns="http://www.w3.org/2000/svg"
   xmlns:xlink="http://www.w3.org/1999/xlink"
   xmlns:sodipodi="http://sodipodi.sourceforge.net/DTD/sodipodi-0.dtd"
   xmlns:inkscape="http://www.inkscape.org/namespaces/inkscape"
   height="16"
   version="1.1"
   width="16"
   id="svg2"
   inkscape:version="0.91 r13725"
   sodipodi:docname="pin.svg">
  <metadata
     id="metadata20">
    <rdf:RDF>
      <cc:Work
         rdf:about="">
        <dc:format>image/svg+xml</dc:format>
        <dc:type
           rdf:resource="http://purl.org/dc/dcmitype/StillImage" />
        <dc:title />
      </cc:Work>
    </rdf:RDF>
  </metadata>
  <defs
     id="defs18">
    <linearGradient
       inkscape:collect="always"
       id="linearGradient4172">
      <stop
         style="stop-color:#f4f4f4;stop-opacity:1"
         offset="0"
         id="stop4174" />
      <stop
         style="stop-color:#939393;stop-opacity:1"
         offset="1"
         id="stop4176" />
    </linearGradient>
    <linearGradient
       inkscape:collect="always"
       id="linearGradient4163">
      <stop
         style="stop-color:#e4e7e8;stop-opacity:1;"
         offset="0"
         id="stop4165" />
      <stop
         style="stop-color:#6a787c;stop-opacity:1"
         offset="1"
         id="stop4167" />
    </linearGradient>
    <linearGradient
       inkscape:collect="always"
       xlink:href="#linearGradient4163"
       id="linearGradient4169"
       x1="3.5307093"
       y1="7.7333355"
       x2="3.5621233"
       y2="9.0593891"
       gradientUnits="userSpaceOnUse" />
    <linearGradient
       inkscape:collect="always"
       xlink:href="#linearGradient4172"
       id="linearGradient4178"
       x1="7.2672734"
       y1="4.5352058"
       x2="7.2256227"
       y2="12.257519"
       gradientUnits="userSpaceOnUse" />
  </defs>
  <sodipodi:namedview
     pagecolor="#ffffff"
     bordercolor="#666666"
     borderopacity="1"
     objecttolerance="10"
     gridtolerance="10"
     guidetolerance="10"
     inkscape:pageopacity="0"
     inkscape:pageshadow="2"
     inkscape:window-width="958"
     inkscape:window-height="647"
     id="namedview16"
     showgrid="false"
     inkscape:zoom="25.639986"
     inkscape:cx="7.2867954"
     inkscape:cy="8.2455843"
     inkscape:window-x="583"
     inkscape:window-y="318"
     inkscape:window-maximized="0"
     inkscape:current-layer="svg2" />
  <path
     style="fill:#e4e7e8;fill-opacity:1;stroke:#202020;stroke-width:0.95978349;stroke-linejoin:round;stroke-miterlimit:4;stroke-dasharray:none;stroke-opacity:1"
     d="M 1.9609375 7.6796875 L 0.68359375 8.3183594 L 1.9609375 8.9570312 L 3.2382812 8.9570312 L 5.7949219 8.9570312 L 7.0722656 8.9570312 L 7.0722656 8.3183594 L 7.0722656 7.6796875 L 5.7949219 7.6796875 L 3.2382812 7.6796875 L 1.9609375 7.6796875 z "
     id="path4149" />
  <path
     style="fill:url(#linearGradient4169);fill-opacity:1;stroke:none;stroke-width:1.19161165;stroke-miterlimit:4;stroke-dasharray:none;stroke-opacity:1"
     d="M 1.9609375,7.6796875 0.68359375,8.3183594 1.9609375,8.9570312 c 1.703776,0 3.4075521,0 5.1113281,0 0,-0.4257812 0,-0.8515625 0,-1.2773437 -1.703776,0 -3.4075521,0 -5.1113281,0 z"
     id="path4159"
     inkscape:connector-curvature="0"
     sodipodi:nodetypes="cccccc" />
  <path
     style="fill:none;fill-opacity:1;stroke:#171717;stroke-width:0.95982862;stroke-miterlimit:4;stroke-dasharray:none;stroke-opacity:1"
     d="M 7.0722656 4.2265625 L 7.0722656 7.6796875 L 7.0722656 8.3183594 L 7.0722656 12.410156 C 7.7749611 12.030063 8.4141597 11.505472 8.8613281 10.873047 L 13.970703 10.873047 C 14.353995 11.266557 14.8659 11.596035 15.376953 11.851562 L 15.376953 8.3183594 L 15.376953 7.6796875 L 15.376953 4.7851562 C 14.865902 5.0410639 14.353991 5.3700352 13.970703 5.7636719 L 8.8613281 5.7636719 C 8.4141551 5.1314348 7.7749639 4.6065963 7.0722656 4.2265625 z "
     id="path4147" />
  <path
     style="fill:url(#linearGradient4178);fill-opacity:1;stroke:none;stroke-width:1.19161165;stroke-miterlimit:4;stroke-dasharray:none;stroke-opacity:1"
     d="m 7.0722656,4.2265625 c 0,2.7278645 0,5.455729 0,8.1835935 0.7026955,-0.380093 1.3418941,-0.904684 1.7890625,-1.537109 l 5.1093749,0 c 0.383292,0.39351 0.895197,0.722988 1.40625,0.978515 0,-2.3554686 0,-4.7109372 0,-7.0664058 -0.511051,0.2559077 -1.022962,0.584879 -1.40625,0.9785157 l -5.1093749,0 C 8.4141551,5.1314348 7.7749639,4.6065963 7.0722656,4.2265625 Z"
     id="path4157"
     inkscape:connector-curvature="0"
     sodipodi:nodetypes="ccccccccc" />
  <path
     style="fill:none;fill-rule:evenodd;stroke:#202020;stroke-width:0.5;stroke-linecap:butt;stroke-linejoin:miter;stroke-miterlimit:4;stroke-dasharray:none;stroke-opacity:1"
     d="m 13.806559,5.5475762 0,5.4992238"
     id="path4158"
     inkscape:connector-curvature="0"
     sodipodi:nodetypes="cc" />
</svg>
