<?xml version="1.0" encoding="UTF-8" standalone="no"?>
<!-- Generator: Adobe Illustrator 16.0.0, SVG Export Plug-In . SVG Version: 6.00 Build 0)  -->

<svg
   xmlns:dc="http://purl.org/dc/elements/1.1/"
   xmlns:cc="http://creativecommons.org/ns#"
   xmlns:rdf="http://www.w3.org/1999/02/22-rdf-syntax-ns#"
   xmlns:svg="http://www.w3.org/2000/svg"
   xmlns="http://www.w3.org/2000/svg"
   xmlns:xlink="http://www.w3.org/1999/xlink"
   xmlns:sodipodi="http://sodipodi.sourceforge.net/DTD/sodipodi-0.dtd"
   xmlns:inkscape="http://www.inkscape.org/namespaces/inkscape"
   version="1.1"
   id="Capa_1"
   x="0px"
   y="0px"
   width="64"
   height="64"
   viewBox="0 0 70.12525 70.12525"
   xml:space="preserve"
   inkscape:version="0.91 r13725"
   sodipodi:docname="NETWORKS_root.svg"><metadata
     id="metadata43"><rdf:RDF><cc:Work
         rdf:about=""><dc:format>image/svg+xml</dc:format><dc:type
           rdf:resource="http://purl.org/dc/dcmitype/StillImage" /><dc:title></dc:title></cc:Work></rdf:RDF></metadata><defs
     id="defs41"><linearGradient
       inkscape:collect="always"
       id="linearGradient4198"><stop
         style="stop-color:#eeffcf;stop-opacity:1;"
         offset="0"
         id="stop4200" /><stop
         style="stop-color:#eeffcf;stop-opacity:0;"
         offset="1"
         id="stop4202" /></linearGradient><linearGradient
       inkscape:collect="always"
       id="linearGradient4188"><stop
         style="stop-color:#41c900;stop-opacity:1"
         offset="0"
         id="stop4190" /><stop
         style="stop-color:#eeffcf;stop-opacity:1"
         offset="1"
         id="stop4192" /></linearGradient><linearGradient
       inkscape:collect="always"
       id="linearGradient4178"><stop
         style="stop-color:#006df0;stop-opacity:1;"
         offset="0"
         id="stop4180" /><stop
         style="stop-color:#9eccff;stop-opacity:1"
         offset="1"
         id="stop4182" /></linearGradient><linearGradient
       inkscape:collect="always"
       xlink:href="#linearGradient4178"
       id="linearGradient4184"
       x1="296.34924"
       y1="504.94849"
       x2="207.06631"
       y2="3.9856448"
       gradientUnits="userSpaceOnUse"
       gradientTransform="matrix(0.11958801,0,0,0.11958801,4.3221361,4.574056)" /><linearGradient
       inkscape:collect="always"
       xlink:href="#linearGradient4188"
       id="linearGradient4194"
       x1="333.91376"
       y1="557.97864"
       x2="219.02596"
       y2="4.3670883"
       gradientUnits="userSpaceOnUse"
       gradientTransform="matrix(0.10914232,0,0,0.10914232,4.3221361,4.574056)" /><radialGradient
       inkscape:collect="always"
       xlink:href="#linearGradient4198"
       id="radialGradient4206"
       cx="213.65106"
       cy="204.58101"
       fx="213.65106"
       fy="204.58101"
       r="134.37173"
       gradientTransform="matrix(0.13776241,0,0,0.13421527,0.37060457,1.0211616)"
       gradientUnits="userSpaceOnUse" /></defs><sodipodi:namedview
     pagecolor="#ffffff"
     bordercolor="#666666"
     borderopacity="1"
     objecttolerance="10"
     gridtolerance="10"
     guidetolerance="10"
     inkscape:pageopacity="0"
     inkscape:pageshadow="2"
     inkscape:window-width="1541"
     inkscape:window-height="1037"
     id="namedview39"
     showgrid="false"
     inkscape:zoom="13.916667"
     inkscape:cx="32"
     inkscape:cy="32"
     inkscape:window-x="0"
     inkscape:window-y="0"
     inkscape:window-maximized="0"
     inkscape:current-layer="Capa_1" /><g
     id="g9"
     transform="translate(0,-490.87677)" /><g
     id="g11"
     transform="translate(0,-490.87677)" /><g
     id="g13"
     transform="translate(0,-490.87677)" /><g
     id="g15"
     transform="translate(0,-490.87677)" /><g
     id="g17"
     transform="translate(0,-490.87677)" /><g
     id="g19"
     transform="translate(0,-490.87677)" /><g
     id="g21"
     transform="translate(0,-490.87677)" /><g
     id="g23"
     transform="translate(0,-490.87677)" /><g
     id="g25"
     transform="translate(0,-490.87677)" /><g
     id="g27"
     transform="translate(0,-490.87677)" /><g
     id="g29"
     transform="translate(0,-490.87677)" /><g
     id="g31"
     transform="translate(0,-490.87677)" /><g
     id="g33"
     transform="translate(0,-490.87677)" /><g
     id="g35"
     transform="translate(0,-490.87677)" /><g
     id="g37"
     transform="translate(0,-490.87677)" /><g
     id="g4777"
     transform="matrix(1.1459091,0,0,1.1459091,-4.9716172,-5.2602942)"><circle
       r="28.488014"
       cy="35.188587"
       cx="34.936665"
       id="path4186"
       style="opacity:1;fill:url(#linearGradient4194);fill-opacity:1;stroke:none;stroke-width:0.32871214;stroke-linejoin:miter;stroke-miterlimit:4;stroke-dasharray:none;stroke-opacity:1" /><path
       inkscape:connector-curvature="0"
       id="path7"
       d="M 34.936666,6.5028785 A 28.685737,28.685737 0 0 0 6.2509595,35.188587 28.685737,28.685737 0 0 0 34.936666,63.874293 28.685737,28.685737 0 0 0 63.622373,35.188587 28.685737,28.685737 0 0 0 34.936666,6.5028785 Z m 0,0.4089829 c 2.996719,0 5.884261,0.4725462 8.596556,1.3402253 -0.774254,1.1024469 -0.89253,-0.437071 -1.131881,0.2057759 -0.24557,0.6585652 -0.85056,0.8570607 -1.025841,0.8483284 -0.345764,0.5212645 -0.662908,1.068601 -1.005286,1.577534 -0.362354,0.06581 -0.697,0.133442 -1.034249,0.184521 -0.137955,0.02108 -0.239169,0.07338 -0.329102,0.180549 -0.368682,0.43886 -0.748015,0.868898 -1.116701,1.30776 -0.323606,0.385053 -0.637695,0.77834 -0.956936,1.16645 -0.04323,0.05239 -0.09495,0.09759 -0.141776,0.145282 -0.245462,-0.0895 -0.438803,-0.229896 -0.616161,-0.395902 -0.30669,-0.287264 -0.521924,-0.636118 -0.683893,-1.019536 -0.216431,-0.512968 -0.339157,-1.049297 -0.40104,-1.602759 -0.01833,-0.166005 -0.0047,-0.314587 0.057,-0.469243 0.197983,-0.4943062 0.381999,-0.9940521 0.582058,-1.4873755 0.05773,-0.1426493 0.03872,-0.2489501 -0.07707,-0.3601656 -0.350019,0.018124 -0.708764,-0.080343 -1.077227,0.034803 0.03635,0.085785 0.0655,0.1599007 0.09856,0.2319347 0.113182,0.2464447 0.229237,0.4919503 0.34078,0.739484 0.02302,0.051406 0.03066,0.1102934 0.04671,0.1693387 -0.313349,0.2410962 -0.622146,0.4658117 -0.916065,0.7086517 -0.292937,0.242078 -0.552815,0.523429 -0.860706,0.763541 -0.145921,-0.279841 -0.373546,-0.460375 -0.607984,-0.632275 -0.392475,-0.288243 -0.255807,-0.23873 -0.743454,-0.222357 -0.330702,0.01101 -0.660019,0.03208 -0.971185,0.17004 -0.16808,0.07443 -0.352593,0.07184 -0.534642,0.06213 -0.138286,-0.0073 -0.253223,-0.05937 -0.337043,-0.171674 -0.02401,-0.03198 -0.04375,-0.06774 -0.0682,-0.0995 -0.07739,-0.100192 -0.182689,-0.126802 -0.296633,-0.08805 -0.09419,0.03209 -0.189319,0.07269 -0.271175,0.128464 -0.140683,0.09615 -0.279203,0.198679 -0.403845,0.314151 -0.155963,0.144614 -0.323604,0.26992 -0.501941,0.383756 -0.27122,0.172664 -0.53857,0.351659 -0.811424,0.52203 -0.100847,0.06309 -0.16248,0.138938 -0.179615,0.260196 -0.02641,0.188708 -0.07831,0.374244 -0.09764,0.563606 -0.02576,0.250153 -0.03322,0.502495 0.04928,0.747191 0.110236,0.327317 0.391099,0.471005 0.716127,0.351057 0.388436,-0.143631 0.752682,-0.334989 1.077927,-0.594201 0.215446,-0.171682 0.393951,-0.373104 0.492832,-0.636247 0.01737,-0.04682 0.03833,-0.09332 0.0654,-0.135004 0.05851,-0.09058 0.132914,-0.113645 0.231468,-0.07053 0.08284,0.03612 0.161616,0.08098 0.243147,0.12005 0.205077,0.09822 0.409427,0.09361 0.605881,-0.01892 0.10423,-0.05937 0.20366,-0.128862 0.296867,-0.204607 0.08546,-0.06952 0.160754,-0.152202 0.238243,-0.231002 0.128568,-0.130972 0.277074,-0.23278 0.446351,-0.30154 0.318588,-0.128898 0.547112,-0.06986 0.730143,0.216753 0.139592,0.218177 0.318657,0.385175 0.529738,0.52717 0.09113,0.06144 0.180275,0.128753 0.259728,0.204607 0.125952,0.11995 0.165765,0.267991 0.124732,0.44098 -0.04507,0.18969 -0.1392,0.353897 -0.240812,0.51619 -0.08513,0.136319 -0.172944,0.271723 -0.249453,0.412954 -0.03743,0.06908 -0.05993,0.148978 -0.07521,0.226797 -0.01637,0.0825 0.05979,0.165898 0.143179,0.151821 0.107826,-0.01803 0.212394,-0.05505 0.318588,-0.08409 0.06309,-0.01703 0.126068,-0.0345 0.220259,-0.06026 -0.03547,0.626149 -0.129891,1.205078 -0.430471,1.733328 -0.05414,0.09518 -0.12226,0.186679 -0.200403,0.262533 -0.223743,0.217082 -0.48833,0.307274 -0.800914,0.230768 -0.217083,-0.05304 -0.415794,-0.131438 -0.586493,-0.287294 -0.334304,-0.305599 -0.643294,-0.269718 -0.94409,0.05792 -0.09419,0.102482 -0.1772,0.220966 -0.241046,0.344516 -0.06647,0.128896 -0.163094,0.192304 -0.2957,0.228431 -0.588169,0.15902 -1.183486,0.226529 -1.790317,0.14598 -0.101833,-0.01363 -0.195601,-0.0086 -0.295468,0.02148 -0.384397,0.115917 -0.771193,0.222934 -1.15734,0.332839 -0.154981,0.0441 -0.301108,0.104992 -0.440046,0.190127 -0.257467,0.158255 -0.5295,0.289446 -0.817964,0.380252 -0.292937,0.09212 -0.587869,0.142184 -0.870984,-0.06213 -0.919742,0.768473 -1.943104,1.330314 -3.084297,1.694088 -0.06745,0.427183 -0.132955,0.842644 -0.198768,1.258475 -0.07978,0.506312 -0.15858,1.012459 -0.240111,1.518442 -0.02074,0.127586 -0.0727,0.177115 -0.190357,0.196432 -0.13763,0.02236 -0.267492,-0.0012 -0.358298,-0.109549 -0.0895,-0.106528 -0.174347,-0.221763 -0.237542,-0.344985 -0.161638,-0.315966 -0.259168,-0.657371 -0.296166,-1.00739 -0.05216,-0.489612 -0.309987,-0.82027 -0.732477,-1.03168 -0.555316,-0.278203 -1.150127,-0.371453 -1.759252,-0.264168 -1.001271,0.176048 -1.857601,0.643863 -2.546617,1.391378 -0.582384,0.6315 -0.576052,0.631584 -0.738783,1.505595 -0.05676,0.304946 -0.06383,0.620742 0.03364,0.926342 0.100197,0.313674 0.305488,0.507999 0.632042,0.577852 0.170042,0.03635 0.337191,0.05247 0.507782,0.01612 0.186414,-0.03973 0.682224,-0.138174 0.731775,-0.118414 0.140903,0.05686 0.265805,0.143142 0.359231,0.266037 0.118202,0.155639 0.151742,0.323299 0.06891,0.508951 -0.06275,0.141012 -0.15181,0.263213 -0.266737,0.361333 -0.144942,0.123545 -0.58916,0.437408 -0.647223,0.491432 -0.246881,0.230727 -0.242637,0.507759 0.0099,0.727571 0.06014,0.05239 0.12945,0.09484 0.1969,0.138275 0.05741,0.03711 0.118402,0.0687 0.186623,0.107439 -0.01669,0.182377 -0.0284,0.352128 -0.04882,0.520862 -0.05271,0.441153 -0.05521,0.883937 -0.03153,1.325745 0.0227,0.42249 0.205387,0.778769 0.550059,1.029578 0.226797,0.165023 0.469573,0.310473 0.716125,0.444718 0.138938,0.07585 0.297042,0.122534 0.451259,0.163032 0.454578,0.118526 0.860992,0.01669 1.190273,-0.31859 0.139267,-0.141557 0.251665,-0.312232 0.358298,-0.481622 0.197001,-0.313238 0.484014,-0.445342 0.845058,-0.372545 0.194055,0.03907 0.36181,0.134267 0.497037,0.26884 0.168626,0.167316 0.369968,0.272585 0.57832,0.372779 0.280496,0.134899 0.558378,0.275486 0.84062,0.407111 0.09889,0.04606 0.204672,0.08085 0.310649,0.107914 0.793792,0.200385 1.474432,0.583795 1.976706,1.24236 0.10423,0.13621 0.223072,0.212321 0.380017,0.267438 0.745772,0.261505 1.430767,0.63713 2.043275,1.138422 0.772181,0.632152 1.351983,1.40256 1.649941,2.364432 0.07018,0.225816 0.170517,0.415891 0.340776,0.586262 0.161642,0.161967 0.296042,0.356234 0.417627,0.551927 0.163932,0.264124 0.304393,0.54299 0.455226,0.815626 0.03809,0.06865 0.07746,0.136905 0.111185,0.195733 0.144941,0.02903 0.27308,0.05208 0.400342,0.08035 0.850326,0.189688 1.652243,0.497801 2.378913,0.985666 0.377742,0.253646 0.715214,0.55301 1.00739,0.903684 0.08043,0.09659 0.1272,0.195032 0.129164,0.325129 0.01737,1.146213 -0.398747,2.077367 -1.354944,2.739314 -0.122896,0.08524 -0.196256,0.18803 -0.247117,0.326531 -0.246114,0.669589 -0.497996,1.336879 -0.753499,2.002866 -0.04606,0.120274 -0.107502,0.238368 -0.181715,0.343581 -0.336596,0.476189 -0.684016,0.945134 -1.019303,1.421977 -0.107501,0.153018 -0.236392,0.271532 -0.400105,0.356662 -0.124645,0.06482 -0.248524,0.132558 -0.375346,0.192695 -0.464946,0.219812 -0.951545,0.376177 -1.454911,0.479753 -0.132937,0.02751 -0.237425,0.07837 -0.324195,0.193629 -0.332994,0.441481 -0.677284,0.874711 -1.016497,1.311499 -0.03711,0.04758 -0.07556,0.09524 -0.103943,0.147849 -0.325573,0.602793 -0.724358,1.159069 -1.098715,1.730756 -0.08448,0.129226 -0.188714,0.23019 -0.316955,0.315321 -0.54473,0.360714 -1.088277,0.723398 -1.627987,1.092408 -0.156618,0.107177 -0.306106,0.22876 -0.444718,0.35853 -0.271546,0.254303 -0.535808,0.516702 -0.797642,0.780826 -0.0692,0.06996 -0.134031,0.152157 -0.175177,0.240344 -0.253865,0.546804 -0.497764,1.097906 -0.75163,1.645037 -0.05414,0.116341 -0.06376,0.227787 -0.0404,0.350354 0.171354,0.908501 0.341105,1.816736 0.509183,2.726001 0.01932,0.105541 0.04171,0.212639 0.0404,0.320692 -0.229744,0.0091 -0.230326,0.0099 -0.449154,-0.08316 -0.383745,-0.162839 -0.719942,-0.399294 -1.029579,-0.674552 -0.707679,-0.628877 -1.244435,-1.391592 -1.717675,-2.2035 -0.0441,-0.07541 -0.06641,-0.168383 -0.07918,-0.256461 -0.10478,-0.716084 -0.206627,-1.43222 -0.305511,-2.148847 -0.01266,-0.09299 -0.04356,-0.172056 -0.09529,-0.24922 -0.119188,-0.178666 -0.17268,-0.381599 -0.212081,-0.590933 -0.09288,-0.493323 -0.03813,-0.981943 0.03433,-1.470792 0.08589,-0.576381 0.173786,-1.152493 0.260665,-1.728654 0.01236,-0.08142 0.0064,-0.154997 -0.04671,-0.227031 -0.141885,-0.193728 -0.184176,-0.41934 -0.197599,-0.653997 -0.02532,-0.447702 0.05278,-0.880993 0.166068,-1.310796 0.04071,-0.154981 0.07707,-0.311921 0.100434,-0.470177 0.07684,-0.516898 0.148366,-1.034646 0.219089,-1.552309 0.02969,-0.217848 0.0524,-0.436178 0.07685,-0.642785 -0.04682,-0.04268 -0.07538,-0.07083 -0.106041,-0.0967 -0.289553,-0.242842 -0.458778,-0.553344 -0.529502,-0.922136 -0.05009,-0.260086 -0.0498,-0.519976 -0.0021,-0.77919 0.03613,-0.195036 0.08237,-0.388186 0.124494,-0.58486 C 17.9655,41.624482 17.873844,41.563629 17.784019,41.500107 17.346905,41.191235 16.94,40.847883 16.599585,40.432926 16.24891,40.005305 15.90165,39.574255 15.564401,39.136377 c -0.134246,-0.17419 -0.255116,-0.36304 -0.354326,-0.559167 -0.16164,-0.320005 -0.241276,-0.661046 -0.159529,-1.021871 0.01899,-0.0836 0.0021,-0.156655 -0.02546,-0.234038 -0.207044,-0.5802 -0.232138,-1.180294 -0.184988,-1.78658 0.03241,-0.417031 0.143226,-0.810572 0.380719,-1.162011 0.146251,-0.216431 0.285087,-0.438193 0.435376,-0.651896 0.265871,-0.378395 0.535858,-0.754301 0.808387,-1.127676 0.266525,-0.36541 0.417489,-0.774207 0.495636,-1.216668 0.03536,-0.200059 0.05702,-0.399565 0.03737,-0.600277 -0.03034,-0.310618 -0.138388,-0.583286 -0.40688,-0.774285 -0.294575,-0.209336 -0.578442,-0.43458 -0.877056,-0.638348 -0.154327,-0.105217 -0.226494,-0.240849 -0.267204,-0.41482 -0.09615,-0.410812 -0.209375,-0.817582 -0.302473,-1.229048 -0.03308,-0.145923 -0.09412,-0.257801 -0.209047,-0.351991 -0.178666,-0.147014 -0.349133,-0.303673 -0.521796,-0.457564 -0.06647,-0.05948 -0.129517,-0.122184 -0.192928,-0.182651 0.01331,-0.381999 0.116529,-0.743707 0.122859,-1.122539 -0.100847,-0.04245 -0.192514,-0.08037 -0.283321,-0.119126 -0.454578,-0.194709 -0.885318,-0.430217 -1.27179,-0.74182 -0.236511,-0.190668 -0.448118,-0.404548 -0.610086,-0.663106 -0.209116,-0.333974 -0.312706,-0.692761 -0.252022,-1.09124 0.04245,-0.278203 0.07489,-0.557696 0.110248,-0.836882 0.02806,-0.219377 0.05554,-0.438731 0.07988,-0.658435 0.004,-0.03536 0.01099,-0.08359 -0.04812,-0.08992 0,0 0.195138,-0.347298 -0.648859,-1.387641 -0.06341,-0.07815 -0.117702,-0.161287 -0.16747,-0.246417 C 16.303006,12.036771 25.03025,6.9118634 34.936661,6.9118634 Z m 15.188612,4.4460106 c 7.860757,5.027969 13.086947,13.828194 13.086947,23.831416 0.0012,10.234057 -5.464437,19.215797 -13.630464,24.180134 0.652016,-0.68192 1.109956,-1.414782 0.68179,-1.985815 -0.236512,-0.227453 -0.217777,-0.499052 -0.12402,-0.779658 0.05414,-0.161749 0.103144,-0.32667 0.171908,-0.482089 0.207371,-0.46833 0.423574,-0.933127 0.636945,-1.398618 0.234438,-0.51144 0.46903,-1.022619 0.70445,-1.533623 0.144612,-0.313567 0.16442,-0.635915 0.09086,-0.97142 -0.08579,-0.392476 -0.160153,-0.787737 -0.239174,-1.181632 -0.07858,-0.391165 -0.08363,-0.780467 0.05138,-1.160611 0.25485,-0.717721 0.598553,-1.381953 1.154306,-1.921116 0.172989,-0.167534 0.333381,-0.349211 0.489563,-0.533008 0.203331,-0.239129 0.358074,-0.509154 0.468307,-0.803948 0.140248,-0.374794 0.190494,-0.754813 0.112346,-1.153837 -0.06047,-0.308218 -0.170499,-0.597976 -0.272109,-0.892006 -0.08513,-0.246879 -0.175486,-0.492038 -0.248285,-0.742519 -0.117215,-0.403281 -0.134244,-0.814473 -0.02335,-1.221573 0.07106,-0.261178 0.163551,-0.51704 0.254357,-0.77265 0.09419,-0.26478 0.201651,-0.524814 0.296168,-0.789703 0.122896,-0.344233 0.192772,-0.70017 0.157193,-1.066015 -0.02401,-0.248735 -0.06702,-0.498042 -0.126831,-0.740884 -0.06418,-0.260741 -0.175184,-0.307769 -0.41879,-0.211615 -0.09321,0.03667 -0.183496,0.08182 -0.275613,0.121224 -0.286171,0.122571 -0.467109,0.06946 -0.610084,-0.137809 -0.106641,-0.154326 -0.263809,-0.247025 -0.443786,-0.294063 -0.154981,-0.04072 -0.310986,-0.09131 -0.469241,-0.10277 -0.532398,-0.03842 -1.065131,-0.01702 -1.597855,0.01518 -0.391059,0.02325 -0.783242,0.03518 -1.174625,0.04228 -0.118851,0.002 -0.238914,-0.02476 -0.356897,-0.04648 -0.31826,-0.05883 -0.616696,-0.175307 -0.907888,-0.313918 -0.529994,-0.251791 -1.008904,-0.582408 -1.467521,-0.944325 -0.743478,-0.587295 -1.410356,-1.258584 -2.091623,-1.913874 -0.09125,-0.08786 -0.148089,-0.192901 -0.178213,-0.309248 -0.03777,-0.145158 -0.06876,-0.294009 -0.08176,-0.443317 -0.05916,-0.687268 0.02573,-1.365114 0.151353,-2.039068 0.134575,-0.721758 0.321297,-1.430772 0.526702,-2.135066 0.115905,-0.397497 0.179869,-0.803173 0.176812,-1.219003 -0.0012,-0.17332 -0.01391,-0.342544 -0.105803,-0.49447 -0.08043,-0.133263 -0.07673,-0.271514 -0.01658,-0.404776 0.09921,-0.219377 0.193339,-0.443923 0.319291,-0.647692 0.426089,-0.68967 1.043457,-1.131871 1.823714,-1.341861 0.172991,-0.04671 0.306454,-0.124949 0.419961,-0.264868 0.290973,-0.359734 0.598481,-0.705861 0.888034,-1.06625 0.100197,-0.124645 0.214966,-0.197526 0.366239,-0.24151 0.452724,-0.1313 0.902875,-0.273081 1.353307,-0.412019 0.395749,-0.12191 0.799916,-0.186572 1.214332,-0.202506 0.752209,-0.02947 1.485176,0.05671 2.189254,0.329569 0.118202,0.04572 0.233461,0.05022 0.353624,0.04858 0.422493,-0.0064 0.844183,-0.01099 1.263617,0.05676 0.401207,0.06482 0.772611,0.173923 1.100583,0.44285 0.575397,0.471167 1.175878,0.911777 1.765792,1.365918 0.32459,0.249827 0.324249,0.25057 0.735279,0.241511 0.623967,-0.01397 1.246744,-0.01407 1.861324,0.118426 0.02598,0.0056 0.05615,-0.0079 0.102533,-0.01564 -0.0067,-0.08252 -0.0032,-0.162063 -0.02056,-0.236607 -0.06353,-0.274601 -0.135555,-0.548441 -0.273513,-0.79554 -0.102482,-0.183359 -0.210941,-0.367539 -0.344749,-0.527869 -0.275148,-0.329936 -0.631843,-0.52009 -1.067649,-0.549124 -0.120275,-0.008 -0.24047,-0.02417 -0.358998,-0.04555 -0.341724,-0.06178 -0.59323,-0.245488 -0.717763,-0.574116 -0.05654,-0.149307 -0.08227,-0.309981 -0.126359,-0.463873 -0.01538,-0.05348 -0.04394,-0.103194 -0.06937,-0.160927 -0.04114,0.02501 -0.07149,0.03546 -0.09016,0.05652 -0.0538,0.05981 -0.104305,0.12231 -0.152988,0.186157 -0.06123,0.07978 -0.114568,0.165905 -0.179615,0.241975 -0.211736,0.247865 -0.381734,0.23207 -0.534641,-0.04788 -0.03372,-0.06144 -0.06199,-0.12651 -0.08665,-0.191995 -0.0358,-0.09376 -0.06456,-0.190299 -0.09926,-0.284488 -0.04878,-0.131846 -0.09257,-0.266167 -0.152054,-0.3931 -0.115255,-0.246115 -0.223794,-0.258271 -0.389363,-0.05232 -0.03143,0.03908 -0.05763,0.08281 -0.0918,0.119588 -0.05446,0.05883 -0.108575,0.120099 -0.171441,0.169103 -0.217303,0.170372 -0.440861,0.170351 -0.664275,0.0047 -0.04005,-0.02969 -0.07515,-0.06647 -0.112583,-0.10021 -0.102807,-0.09256 -0.15226,-0.202425 -0.146914,-0.346384 0.0067,-0.180303 0.002,-0.362563 -0.01634,-0.541883 -0.01111,-0.107502 -0.04903,-0.214939 -0.0904,-0.315787 -0.03384,-0.08251 -0.13134,-0.103819 -0.204138,-0.05208 -0.07313,0.0514 -0.139179,0.11282 -0.220492,0.179614 -0.09081,-0.03809 -0.182891,-0.07411 -0.273042,-0.115143 -0.393133,-0.178666 -0.78453,-0.361464 -1.179297,-0.536745 -0.13523,-0.06014 -0.261295,-0.129248 -0.375348,-0.280518 -0.212064,0.707679 -0.231524,1.403966 -0.332372,2.100732 -0.07422,0.02335 -0.14817,0.0511 -0.224458,0.07053 -0.330594,0.08415 -0.664704,0.156103 -0.992677,0.250621 -0.53567,0.154656 -1.010605,0.04776 -1.443465,-0.292663 -0.313563,-0.246445 -0.556167,-0.552491 -0.751861,-0.895742 -0.248844,-0.436571 -0.489775,-0.877726 -0.732943,-1.317573 -0.02849,-0.0514 -0.04973,-0.106552 -0.07615,-0.163964 0.111547,-0.123546 0.257383,-0.171701 0.385627,-0.245483 0.587513,-0.337359 1.210286,-0.536693 1.89799,-0.469243 0.08415,0.0084 0.158274,-0.007 0.227034,-0.0577 0.04846,-0.0358 0.10237,-0.06345 0.153452,-0.09577 0.254413,-0.161639 0.536211,-0.293256 0.755367,-0.493533 0.226691,-0.207371 0.394971,-0.47985 0.58346,-0.728038 0.07749,-0.102271 0.173962,-0.194272 0.221657,-0.323495 -0.08851,-0.206388 -0.16759,-0.412929 -0.264403,-0.61102 -0.07923,-0.16164 -0.0947,-0.323955 -0.06632,-0.497271 0.03405,-0.208025 0.06585,-0.417086 0.09226,-0.626205 0.0097,-0.07574 0.04274,-0.15872 -0.03246,-0.23894 -0.327975,-0.04475 -0.664627,-0.102845 -1.003187,-0.132202 -0.162293,-0.01396 -0.25697,-0.0812 -0.330969,-0.215117 -0.10227,-0.184669 -0.221436,-0.360016 -0.319991,-0.546322 -0.06952,-0.131188 -0.171225,-0.187164 -0.311583,-0.201572 -0.18958,-0.01942 -0.378493,-0.05564 -0.56851,-0.06634 -0.154216,-0.0087 -0.266097,-0.07579 -0.363668,-0.185689 -0.149635,-0.168952 -0.242261,-0.368453 -0.311348,-0.58019 -0.09757,-0.298504 -0.130615,-0.608291 -0.154626,-0.919565 -0.03066,-0.40208 -0.01369,-0.802611 0.04952,-1.218769 0.07815,-0.01538 0.154443,-0.03476 0.231935,-0.04415 0.07978,-0.0096 0.160933,-0.007 0.241044,-0.01425 0.06974,-0.0064 0.138962,-0.02015 0.208813,-0.02779 0.07978,-0.0091 0.160328,-0.0131 0.240111,-0.02336 0.07313,-0.0094 0.156512,0.01553 0.223527,-0.04764 0,0 0.675332,0.09954 0.791569,-0.705383 0.01186,-0.08383 0.04134,-0.165015 0.07965,-0.24338 z"
       style="fill:url(#linearGradient4184);fill-opacity:1" /><ellipse
       ry="18.034739"
       rx="18.511372"
       cy="28.479059"
       cx="29.803688"
       id="path4196"
       style="opacity:0.69499966;fill:url(#radialGradient4206);fill-opacity:1;stroke:none;stroke-width:0.37329507;stroke-linejoin:miter;stroke-miterlimit:4;stroke-dasharray:none;stroke-opacity:1" /></g></svg>