<?xml version="1.0" encoding="UTF-8" standalone="no"?>
<!-- Generator: Adobe Illustrator 15.1.0, SVG Export Plug-In . SVG Version: 6.00 Build 0)  -->

<svg
   xmlns:dc="http://purl.org/dc/elements/1.1/"
   xmlns:cc="http://creativecommons.org/ns#"
   xmlns:rdf="http://www.w3.org/1999/02/22-rdf-syntax-ns#"
   xmlns:svg="http://www.w3.org/2000/svg"
   xmlns="http://www.w3.org/2000/svg"
   xmlns:sodipodi="http://sodipodi.sourceforge.net/DTD/sodipodi-0.dtd"
   xmlns:inkscape="http://www.inkscape.org/namespaces/inkscape"
   version="1.1"
   id="Layer_1"
   x="0px"
   y="0px"
   width="48"
   height="48"
   viewBox="0 0 48 48"
   enable-background="new 0 0 512 512"
   xml:space="preserve"
   inkscape:version="0.91 r13725"
   sodipodi:docname="ROP_comp.svg"><metadata
     id="metadata19"><rdf:RDF><cc:Work
         rdf:about=""><dc:format>image/svg+xml</dc:format><dc:type
           rdf:resource="http://purl.org/dc/dcmitype/StillImage" /><dc:title /></cc:Work></rdf:RDF></metadata><defs
     id="defs17" /><sodipodi:namedview
     pagecolor="#ffffff"
     bordercolor="#666666"
     borderopacity="1"
     objecttolerance="10"
     gridtolerance="10"
     guidetolerance="10"
     inkscape:pageopacity="0"
     inkscape:pageshadow="2"
     inkscape:window-width="1225"
     inkscape:window-height="845"
     id="namedview15"
     showgrid="false"
     inkscape:zoom="10.348345"
     inkscape:cx="14.628606"
     inkscape:cy="21.695413"
     inkscape:window-x="174"
     inkscape:window-y="152"
     inkscape:window-maximized="0"
     inkscape:current-layer="Layer_1" /><path
     d="m 46.743497,31.692136 -3.4988,-1.951963 -15.919994,8.88598 c -0.911852,0.509154 -2.074237,0.78928 -3.274545,0.78928 -1.199793,0 -2.362797,-0.280223 -3.274546,-0.78928 L 4.8549996,29.740173 1.35682,31.692136 c -1.13888803,0.63637 -1.13888803,1.667428 0,2.302839 l 20.630027,11.514959 c 0.569701,0.317611 1.316558,0.477039 2.063311,0.477039 0.746754,0 1.493507,-0.159331 2.062797,-0.477039 L 46.743598,33.994975 c 1.139405,-0.635508 1.139405,-1.666469 -1.01e-4,-2.302839 z"
     id="path3"
     inkscape:connector-curvature="0"
     style="fill:#ffffff" /><path
     d="m 46.743497,22.930112 -3.4988,-1.951962 -15.919994,8.885981 c -0.911852,0.509152 -2.074237,0.789278 -3.274545,0.789278 -1.199793,0 -2.362797,-0.280222 -3.274546,-0.789278 L 4.8551019,20.97815 1.3569223,22.930112 c -1.13888725,0.636371 -1.13888725,1.667524 0,2.30284 L 21.98695,36.747912 c 0.569701,0.317611 1.316557,0.477133 2.063312,0.477133 0.746754,0 1.493506,-0.159427 2.062796,-0.477133 l 20.630646,-11.51496 c 1.139299,-0.635316 1.139299,-1.666373 -2.07e-4,-2.30284 z"
     id="path5"
     inkscape:connector-curvature="0"
     style="fill:#ffffff" /><path
     d="M 46.743497,14.168186 26.112955,2.6541842 C 25.543768,2.3365746 24.796912,2.1771463 24.050158,2.1771463 c -0.746753,0 -1.49361,0.1594283 -2.063311,0.4770379 L 1.35682,14.168186 c -1.13888803,0.636369 -1.13888803,1.667523 0,2.302838 l 20.630027,11.515057 c 0.569701,0.31761 1.316558,0.477038 2.063311,0.477038 0.746754,0 1.493507,-0.159333 2.062797,-0.477038 L 46.743598,16.471024 c 1.139405,-0.635411 1.139405,-1.666469 -1.01e-4,-2.302838 z"
     id="path7"
     inkscape:connector-curvature="0"
     style="fill:#ffffff" /><path
     d="M 46.743497,33.994879 26.112955,45.509934 c -0.569187,0.317611 -1.316043,0.477039 -2.062797,0.477039 -0.746753,0 -1.49361,-0.159331 -2.063311,-0.477039 L 1.35682,33.994879 c -1.13888803,-0.635412 -1.13888803,-1.66647 0,-2.302839 l 3.4981796,-1.951964 15.9205104,8.88598 c 0.911748,0.509154 2.074751,0.789279 3.274546,0.789279 1.200308,0 2.362795,-0.280221 3.274544,-0.789279 l 15.919996,-8.88598 3.498796,1.951964 c 1.139611,0.636466 1.139611,1.667427 1.05e-4,2.302839 z"
     id="path9"
     inkscape:connector-curvature="0"
     style="fill:#739ff6;fill-opacity:1;stroke:#505050;stroke-width:0.96520084;stroke-opacity:1" /><path
     d="m 46.743497,25.232952 -20.630542,11.51496 c -0.569187,0.317611 -1.316043,0.477133 -2.062797,0.477133 -0.746753,0 -1.49361,-0.159427 -2.063311,-0.477133 L 1.35682,25.232952 c -1.13888803,-0.635316 -1.13888803,-1.666373 0,-2.30284 L 4.8549996,20.97815 20.77551,29.864131 c 0.911748,0.509152 2.074751,0.789278 3.274546,0.789278 1.200308,0 2.362795,-0.280222 3.274544,-0.789278 l 15.919996,-8.885981 3.498796,1.951962 c 1.139611,0.636467 1.139611,1.667524 1.05e-4,2.30284 z"
     id="path11"
     inkscape:connector-curvature="0"
     style="fill:#ffffff;fill-opacity:1;stroke:#505050;stroke-width:0.96520084;stroke-opacity:1" /><path
     d="M 46.743497,16.470928 26.112955,27.986081 c -0.569187,0.31761 -1.316043,0.477038 -2.062797,0.477038 -0.746753,0 -1.49361,-0.159333 -2.063311,-0.477038 L 1.35682,16.470928 c -1.13888803,-0.635315 -1.13888803,-1.666373 0,-2.302839 L 21.986847,2.6540882 c 0.569701,-0.3176094 1.316558,-0.4770364 2.063311,-0.4770364 0.746754,0 1.493507,0.159427 2.062797,0.4770364 L 46.743598,14.168089 c 1.139405,0.636466 1.139405,1.667524 -1.01e-4,2.302839 z"
     id="path13"
     inkscape:connector-curvature="0"
     style="fill:#c3c3c3;fill-opacity:1;stroke:#505050;stroke-width:0.965;stroke-opacity:1;stroke-miterlimit:4;stroke-dasharray:none" /></svg>