<?xml version="1.0" encoding="UTF-8" standalone="no"?>
<!-- Created with Inkscape (http://www.inkscape.org/) -->

<svg
   xmlns:dc="http://purl.org/dc/elements/1.1/"
   xmlns:cc="http://creativecommons.org/ns#"
   xmlns:rdf="http://www.w3.org/1999/02/22-rdf-syntax-ns#"
   xmlns:svg="http://www.w3.org/2000/svg"
   xmlns="http://www.w3.org/2000/svg"
   xmlns:sodipodi="http://sodipodi.sourceforge.net/DTD/sodipodi-0.dtd"
   xmlns:inkscape="http://www.inkscape.org/namespaces/inkscape"
   width="32"
   height="32"
   viewBox="0 0 32 32.000001"
   id="svg2"
   version="1.1"
   inkscape:version="0.91 r13725"
   sodipodi:docname="COP2_press.svg">
  <defs
     id="defs4" />
  <sodipodi:namedview
     id="base"
     pagecolor="#ffffff"
     bordercolor="#666666"
     borderopacity="1.0"
     inkscape:pageopacity="0.0"
     inkscape:pageshadow="2"
     inkscape:zoom="29.65625"
     inkscape:cx="16"
     inkscape:cy="16"
     inkscape:document-units="px"
     inkscape:current-layer="layer1"
     showgrid="false"
     units="px"
     inkscape:window-width="1920"
     inkscape:window-height="1151"
     inkscape:window-x="0"
     inkscape:window-y="0"
     inkscape:window-maximized="1" />
  <metadata
     id="metadata7">
    <rdf:RDF>
      <cc:Work
         rdf:about="">
        <dc:format>image/svg+xml</dc:format>
        <dc:type
           rdf:resource="http://purl.org/dc/dcmitype/StillImage" />
        <dc:title></dc:title>
      </cc:Work>
    </rdf:RDF>
  </metadata>
  <g
     inkscape:label="Layer 1"
     inkscape:groupmode="layer"
     id="layer1"
     transform="translate(0,-1020.3622)">
    <g
       id="g4656"
       style="stroke:none;stroke-opacity:1"
       transform="matrix(0.09985563,0,0,0.0995795,-16.141799,978.69814)">
      <path
         id="path4136"
         d="m 171.88281,429.15039 0,35.23047 a 40,40 0 0 0 3.60157,0.17969 40,40 0 0 0 39.71093,-35.41016 l -43.3125,0 z"
         style="opacity:0.69499966;fill:#00ffff;fill-opacity:1;stroke:none;stroke-width:0.43397856;stroke-linejoin:round;stroke-miterlimit:4;stroke-dasharray:none;stroke-opacity:1"
         inkscape:connector-curvature="0" />
      <path
         id="circle4138"
         d="m 235.79883,429.15039 a 40,40 0 0 0 39.68555,35.41016 40,40 0 0 0 39.71093,-35.41016 l -79.39648,0 z"
         style="opacity:0.69499966;fill:#00ffff;fill-opacity:1;stroke:none;stroke-width:0.43397856;stroke-linejoin:round;stroke-miterlimit:4;stroke-dasharray:none;stroke-opacity:1"
         inkscape:connector-curvature="0" />
      <path
         id="circle4140"
         d="m 335.79883,429.15039 a 40,40 0 0 0 39.68555,35.41016 40,40 0 0 0 39.71093,-35.41016 l -79.39648,0 z"
         style="opacity:0.69499966;fill:#00ffff;fill-opacity:1;stroke:none;stroke-width:0.43397856;stroke-linejoin:round;stroke-miterlimit:4;stroke-dasharray:none;stroke-opacity:1"
         inkscape:connector-curvature="0" />
      <path
         id="circle4142"
         d="m 435.79883,429.15039 a 40,40 0 0 0 36.08398,35.23047 l 0,-35.23047 -36.08398,0 z"
         style="opacity:0.69499966;fill:#00ffff;fill-opacity:1;stroke:none;stroke-width:0.43397856;stroke-linejoin:round;stroke-miterlimit:4;stroke-dasharray:none;stroke-opacity:1"
         inkscape:connector-curvature="0" />
      <path
         id="circle4144"
         d="m 175.48438,484.56055 a 40,40 0 0 0 -3.60157,0.19336 l 0,79.62695 a 40,40 0 0 0 3.60157,0.17969 40,40 0 0 0 40,-40 40,40 0 0 0 -40,-40 z"
         style="opacity:0.69499966;fill:#00ffff;fill-opacity:1;stroke:none;stroke-width:0.43397856;stroke-linejoin:round;stroke-miterlimit:4;stroke-dasharray:none;stroke-opacity:1"
         inkscape:connector-curvature="0" />
      <path
         style="opacity:0.69499966;fill:#00ffff;fill-opacity:1;stroke:none;stroke-width:0.43397856;stroke-linejoin:round;stroke-miterlimit:4;stroke-dasharray:none;stroke-opacity:1"
         d="m 315.48534,524.56033 a 40,40 0 0 1 -40,40 40,40 0 0 1 -40,-40 40,40 0 0 1 40,-40 40,40 0 0 1 40,40 z"
         id="circle4146"
         inkscape:connector-curvature="0" />
      <path
         style="opacity:0.69499966;fill:#00ffff;fill-opacity:1;stroke:none;stroke-width:0.43397856;stroke-linejoin:round;stroke-miterlimit:4;stroke-dasharray:none;stroke-opacity:1"
         d="m 415.48534,524.56033 a 40,40 0 0 1 -40,40 40,40 0 0 1 -40,-40 40,40 0 0 1 40,-40 40,40 0 0 1 40,40 z"
         id="circle4148"
         inkscape:connector-curvature="0" />
      <path
         id="circle4150"
         d="m 471.88281,484.75391 a 40,40 0 0 0 -36.39843,39.80664 40,40 0 0 0 36.39843,39.82031 l 0,-79.62695 z"
         style="opacity:0.69499966;fill:#00ffff;fill-opacity:1;stroke:none;stroke-width:0.43397856;stroke-linejoin:round;stroke-miterlimit:4;stroke-dasharray:none;stroke-opacity:1"
         inkscape:connector-curvature="0" />
      <path
         id="circle4264"
         d="m 175.48438,584.56055 a 40,40 0 0 0 -3.60157,0.19336 l 0,79.62695 a 40,40 0 0 0 3.60157,0.17969 40,40 0 0 0 40,-40 40,40 0 0 0 -40,-40 z"
         style="opacity:0.69499966;fill:#00ffff;fill-opacity:1;stroke:none;stroke-width:0.43397856;stroke-linejoin:round;stroke-miterlimit:4;stroke-dasharray:none;stroke-opacity:1"
         inkscape:connector-curvature="0" />
      <path
         style="opacity:0.69499966;fill:#00ffff;fill-opacity:1;stroke:none;stroke-width:0.43397856;stroke-linejoin:round;stroke-miterlimit:4;stroke-dasharray:none;stroke-opacity:1"
         d="m 315.48534,624.56027 a 40,40 0 0 1 -40,40 40,40 0 0 1 -40,-40 40,40 0 0 1 40,-40 40,40 0 0 1 40,40 z"
         id="circle4266"
         inkscape:connector-curvature="0" />
      <path
         style="opacity:0.69499966;fill:#00ffff;fill-opacity:1;stroke:none;stroke-width:0.43397856;stroke-linejoin:round;stroke-miterlimit:4;stroke-dasharray:none;stroke-opacity:1"
         d="m 415.48534,624.56027 a 40,40 0 0 1 -40,40 40,40 0 0 1 -40,-40 40,40 0 0 1 40,-40 40,40 0 0 1 40,40 z"
         id="circle4268"
         inkscape:connector-curvature="0" />
      <path
         id="circle4270"
         d="m 471.88281,584.75391 a 40,40 0 0 0 -36.39843,39.80664 40,40 0 0 0 36.39843,39.82031 l 0,-79.62695 z"
         style="opacity:0.69499966;fill:#00ffff;fill-opacity:1;stroke:none;stroke-width:0.43397856;stroke-linejoin:round;stroke-miterlimit:4;stroke-dasharray:none;stroke-opacity:1"
         inkscape:connector-curvature="0" />
      <path
         id="circle4272"
         d="m 175.48438,684.56055 a 40,40 0 0 0 -3.60157,0.19336 l 0,44.39648 43.3125,0 a 40,40 0 0 0 0.28907,-4.58984 40,40 0 0 0 -40,-40 z"
         style="opacity:0.69499966;fill:#00ffff;fill-opacity:1;stroke:none;stroke-width:0.43397856;stroke-linejoin:round;stroke-miterlimit:4;stroke-dasharray:none;stroke-opacity:1"
         inkscape:connector-curvature="0" />
      <path
         id="circle4274"
         d="m 275.48438,684.56055 a 40,40 0 0 0 -40,40 40,40 0 0 0 0.31445,4.58984 l 79.39648,0 a 40,40 0 0 0 0.28907,-4.58984 40,40 0 0 0 -40,-40 z"
         style="opacity:0.69499966;fill:#00ffff;fill-opacity:1;stroke:none;stroke-width:0.43397856;stroke-linejoin:round;stroke-miterlimit:4;stroke-dasharray:none;stroke-opacity:1"
         inkscape:connector-curvature="0" />
      <path
         id="circle4276"
         d="m 375.48438,684.56055 a 40,40 0 0 0 -40,40 40,40 0 0 0 0.31445,4.58984 l 79.39648,0 a 40,40 0 0 0 0.28907,-4.58984 40,40 0 0 0 -40,-40 z"
         style="opacity:0.69499966;fill:#00ffff;fill-opacity:1;stroke:none;stroke-width:0.43397856;stroke-linejoin:round;stroke-miterlimit:4;stroke-dasharray:none;stroke-opacity:1"
         inkscape:connector-curvature="0" />
      <path
         id="circle4278"
         d="m 471.88281,684.75391 a 40,40 0 0 0 -36.39843,39.80664 40,40 0 0 0 0.31445,4.58984 l 36.08398,0 0,-44.39648 z"
         style="opacity:0.69499966;fill:#00ffff;fill-opacity:1;stroke:none;stroke-width:0.43397856;stroke-linejoin:round;stroke-miterlimit:4;stroke-dasharray:none;stroke-opacity:1"
         inkscape:connector-curvature="0" />
      <path
         id="circle4300"
         d="m 172.29688,461.5918 a 40,40 0 0 0 -0.41407,0.041 l 0,79.82422 a 40,40 0 0 0 16.05664,-2.32617 40,40 0 0 0 23.90625,-51.26758 40,40 0 0 0 -39.54882,-26.27148 z"
         style="opacity:0.69499966;fill:#ff00ff;fill-opacity:1;stroke:none;stroke-width:0.43397856;stroke-linejoin:round;stroke-miterlimit:4;stroke-dasharray:none;stroke-opacity:1"
         inkscape:connector-curvature="0" />
      <path
         id="circle4302"
         d="m 256.50391,429.15039 a 40,40 0 0 0 -1.95703,0.60352 40,40 0 0 0 -23.90626,51.26757 40,40 0 0 0 51.26758,23.90821 40,40 0 0 0 23.90625,-51.26953 40,40 0 0 0 -25.86133,-24.50977 l -23.44921,0 z"
         style="opacity:0.69499966;fill:#ff00ff;fill-opacity:1;stroke:none;stroke-width:0.43397856;stroke-linejoin:round;stroke-miterlimit:4;stroke-dasharray:none;stroke-opacity:1"
         inkscape:connector-curvature="0" />
      <path
         id="circle4304"
         d="m 322.44727,429.15039 a 40,40 0 0 0 2.16211,17.66992 40,40 0 0 0 51.26757,23.90625 40,40 0 0 0 26.07032,-41.57617 l -79.5,0 z"
         style="opacity:0.69499966;fill:#ff00ff;fill-opacity:1;stroke:none;stroke-width:0.43397856;stroke-linejoin:round;stroke-miterlimit:4;stroke-dasharray:none;stroke-opacity:1"
         inkscape:connector-curvature="0" />
      <path
         id="circle4306"
         d="m 430.02344,429.15039 a 40,40 0 0 0 39.82422,7.375 40,40 0 0 0 2.03515,-0.82422 l 0,-6.55078 -41.85937,0 z"
         style="opacity:0.69499966;fill:#ff00ff;fill-opacity:1;stroke:none;stroke-width:0.43397856;stroke-linejoin:round;stroke-miterlimit:4;stroke-dasharray:none;stroke-opacity:1"
         inkscape:connector-curvature="0" />
      <path
         id="circle4308"
         d="m 206.49805,555.56055 a 40,40 0 0 0 -11.71875,2.36328 40,40 0 0 0 -22.89649,21.51562 l 0,32.24805 a 40,40 0 0 0 50.25781,21.41211 40,40 0 0 0 23.90821,-51.26758 40,40 0 0 0 -39.55078,-26.27148 z"
         style="opacity:0.69499966;fill:#ff00ff;fill-opacity:1;stroke:none;stroke-width:0.43397856;stroke-linejoin:round;stroke-miterlimit:4;stroke-dasharray:none;stroke-opacity:1"
         inkscape:connector-curvature="0" />
      <path
         style="opacity:0.69499966;fill:#ff00ff;fill-opacity:1;stroke:none;stroke-width:0.43397856;stroke-linejoin:round;stroke-miterlimit:4;stroke-dasharray:none;stroke-opacity:1"
         d="m 340.01735,547.62965 a 40,40 0 0 1 -23.9069,51.26851 40,40 0 0 1 -51.26851,-23.9069 40,40 0 0 1 23.9069,-51.26851 40,40 0 0 1 51.26851,23.9069 z"
         id="circle4310"
         inkscape:connector-curvature="0" />
      <path
         style="opacity:0.69499966;fill:#ff00ff;fill-opacity:1;stroke:none;stroke-width:0.43397856;stroke-linejoin:round;stroke-miterlimit:4;stroke-dasharray:none;stroke-opacity:1"
         d="m 433.98661,513.42763 a 40,40 0 0 1 -23.9069,51.26851 40,40 0 0 1 -51.26851,-23.9069 40,40 0 0 1 23.9069,-51.26851 40,40 0 0 1 51.26851,23.9069 z"
         id="circle4312"
         inkscape:connector-curvature="0" />
      <path
         id="circle4314"
         d="m 471.88281,457.48828 a 40,40 0 0 0 -19.10156,49.09961 40,40 0 0 0 19.10156,21.74414 l 0,-70.84375 z"
         style="opacity:0.69499966;fill:#ff00ff;fill-opacity:1;stroke:none;stroke-width:0.43397856;stroke-linejoin:round;stroke-miterlimit:4;stroke-dasharray:none;stroke-opacity:1"
         inkscape:connector-curvature="0" />
      <path
         style="opacity:0.69499966;fill:#ff00ff;fill-opacity:1;stroke:none;stroke-width:0.43397856;stroke-linejoin:round;stroke-miterlimit:4;stroke-dasharray:none;stroke-opacity:1"
         d="m 280.25008,675.80087 a 40,40 0 0 1 -23.9069,51.26851 40,40 0 0 1 -51.26851,-23.9069 40,40 0 0 1 23.9069,-51.26851 40,40 0 0 1 51.26851,23.9069 z"
         id="circle4316"
         inkscape:connector-curvature="0" />
      <path
         style="opacity:0.69499966;fill:#ff00ff;fill-opacity:1;stroke:none;stroke-width:0.43397856;stroke-linejoin:round;stroke-miterlimit:4;stroke-dasharray:none;stroke-opacity:1"
         d="m 374.21934,641.59885 a 40,40 0 0 1 -23.9069,51.26851 40,40 0 0 1 -51.26851,-23.9069 40,40 0 0 1 23.9069,-51.26851 40,40 0 0 1 51.26851,23.9069 z"
         id="circle4318"
         inkscape:connector-curvature="0" />
      <path
         style="opacity:0.69499966;fill:#ff00ff;fill-opacity:1;stroke:none;stroke-width:0.43397856;stroke-linejoin:round;stroke-miterlimit:4;stroke-dasharray:none;stroke-opacity:1"
         d="m 468.18861,607.39684 a 40,40 0 0 1 -23.9069,51.26851 40,40 0 0 1 -51.26851,-23.9069 40,40 0 0 1 23.90689,-51.26851 40,40 0 0 1 51.26852,23.9069 z"
         id="circle4320"
         inkscape:connector-curvature="0" />
      <path
         id="circle4326"
         d="m 368.87109,709.29688 a 40,40 0 0 0 -11.71875,2.36523 40,40 0 0 0 -20.85937,17.48828 l 69.10937,0 a 40,40 0 0 0 -36.53125,-19.85351 z"
         style="opacity:0.69499966;fill:#ff00ff;fill-opacity:1;stroke:none;stroke-width:0.43397856;stroke-linejoin:round;stroke-miterlimit:4;stroke-dasharray:none;stroke-opacity:1"
         inkscape:connector-curvature="0" />
      <path
         id="circle4328"
         d="m 462.8418,675.0957 a 40,40 0 0 0 -11.71875,2.36328 40,40 0 0 0 -23.90821,51.26954 40,40 0 0 0 0.16993,0.42187 l 44.49804,0 0,-53.43164 a 40,40 0 0 0 -9.04101,-0.62305 z"
         style="opacity:0.69499966;fill:#ff00ff;fill-opacity:1;stroke:none;stroke-width:0.43397856;stroke-linejoin:round;stroke-miterlimit:4;stroke-dasharray:none;stroke-opacity:1"
         inkscape:connector-curvature="0" />
      <path
         id="circle4338"
         d="m 171.88281,429.15039 0,64.41602 a 40,40 0 0 0 40.24805,-6.57813 40,40 0 0 0 4.92969,-56.35351 40,40 0 0 0 -1.33789,-1.48438 l -43.83985,0 z"
         style="opacity:0.69499966;fill:#ffff00;fill-opacity:1;stroke:none;stroke-width:0.43397856;stroke-linejoin:round;stroke-miterlimit:4;stroke-dasharray:none;stroke-opacity:1"
         inkscape:connector-curvature="0" />
      <path
         id="circle4344"
         d="m 174.16797,557.22852 a 40,40 0 0 0 -2.28516,0.11132 l 0,79.77735 a 40,40 0 0 0 27.92188,-9.2461 40,40 0 0 0 4.92969,-56.35351 40,40 0 0 0 -30.56641,-14.28906 z"
         style="opacity:0.69499966;fill:#ffff00;fill-opacity:1;stroke:none;stroke-width:0.43397856;stroke-linejoin:round;stroke-miterlimit:4;stroke-dasharray:none;stroke-opacity:1"
         inkscape:connector-curvature="0" />
      <path
         style="opacity:0.69499966;fill:#ffff00;fill-opacity:1;stroke:none;stroke-width:0.43397856;stroke-linejoin:round;stroke-miterlimit:4;stroke-dasharray:none;stroke-opacity:1"
         d="m 281.33905,507.23905 a 40,40 0 0 1 -4.93028,56.35329 40,40 0 0 1 -56.35328,-4.93028 40,40 0 0 1 4.93027,-56.35328 40,40 0 0 1 56.35329,4.93027 z"
         id="circle4346"
         inkscape:connector-curvature="0" />
      <path
         style="opacity:0.69499966;fill:#ffff00;fill-opacity:1;stroke:none;stroke-width:0.43397856;stroke-linejoin:round;stroke-miterlimit:4;stroke-dasharray:none;stroke-opacity:1"
         d="m 357.94349,442.96029 a 40,40 0 0 1 -4.93027,56.35328 40,40 0 0 1 -56.35328,-4.93027 40,40 0 0 1 4.93027,-56.35328 40,40 0 0 1 56.35328,4.93027 z"
         id="circle4348"
         inkscape:connector-curvature="0" />
      <path
         id="circle4350"
         d="m 171.88281,699.46484 0,29.68555 28.82617,0 a 40,40 0 0 0 -8.30078,-16.75 40,40 0 0 0 -20.52539,-12.93555 z"
         style="opacity:0.69499966;fill:#ffff00;fill-opacity:1;stroke:none;stroke-width:0.43397856;stroke-linejoin:round;stroke-miterlimit:4;stroke-dasharray:none;stroke-opacity:1"
         inkscape:connector-curvature="0" />
      <path
         style="opacity:0.69499966;fill:#ffff00;fill-opacity:1;stroke:none;stroke-width:0.43397856;stroke-linejoin:round;stroke-miterlimit:4;stroke-dasharray:none;stroke-opacity:1"
         d="m 269.01333,648.12221 a 40,40 0 0 1 -4.93028,56.35328 40,40 0 0 1 -56.35328,-4.93027 40,40 0 0 1 4.93027,-56.35328 40,40 0 0 1 56.35329,4.93027 z"
         id="circle4352"
         inkscape:connector-curvature="0" />
      <path
         style="opacity:0.69499966;fill:#ffff00;fill-opacity:1;stroke:none;stroke-width:0.43397856;stroke-linejoin:round;stroke-miterlimit:4;stroke-dasharray:none;stroke-opacity:1"
         d="m 345.61777,583.84345 a 40,40 0 0 1 -4.93027,56.35328 40,40 0 0 1 -56.35329,-4.93027 40,40 0 0 1 4.93028,-56.35328 40,40 0 0 1 56.35328,4.93027 z"
         id="circle4354"
         inkscape:connector-curvature="0" />
      <path
         style="opacity:0.69499966;fill:#ffff00;fill-opacity:1;stroke:none;stroke-width:0.43397856;stroke-linejoin:round;stroke-miterlimit:4;stroke-dasharray:none;stroke-opacity:1"
         d="m 422.22221,519.56469 a 40,40 0 0 1 -4.93027,56.35328 40,40 0 0 1 -56.35328,-4.93027 40,40 0 0 1 4.93027,-56.35328 40,40 0 0 1 56.35328,4.93027 z"
         id="circle4356"
         inkscape:connector-curvature="0" />
      <path
         id="circle4360"
         d="m 302.72461,710.4375 a 40,40 0 0 0 -25.78516,9.35938 40,40 0 0 0 -8.09765,9.35351 l 67.61914,0 a 40,40 0 0 0 -3.16797,-4.42383 40,40 0 0 0 -30.56836,-14.28906 z"
         style="opacity:0.69499966;fill:#ffff00;fill-opacity:1;stroke:none;stroke-width:0.43397856;stroke-linejoin:round;stroke-miterlimit:4;stroke-dasharray:none;stroke-opacity:1"
         inkscape:connector-curvature="0" />
      <path
         style="opacity:0.69499966;fill:#ffff00;fill-opacity:1;stroke:none;stroke-width:0.43397856;stroke-linejoin:round;stroke-miterlimit:4;stroke-dasharray:none;stroke-opacity:1"
         d="m 409.89653,660.4479 a 40,40 0 0 1 -4.93027,56.35328 40,40 0 0 1 -56.35328,-4.93028 40,40 0 0 1 4.93027,-56.35328 40,40 0 0 1 56.35328,4.93028 z"
         id="circle4362"
         inkscape:connector-curvature="0" />
      <path
         id="circle4364"
         d="m 455.93359,581.88086 a 40,40 0 0 0 -25.78515,9.35742 40,40 0 0 0 -4.93164,56.35352 40,40 0 0 0 46.66601,10.91211 l 0,-73.25391 a 40,40 0 0 0 -15.94922,-3.36914 z"
         style="opacity:0.69499966;fill:#ffff00;fill-opacity:1;stroke:none;stroke-width:0.43397856;stroke-linejoin:round;stroke-miterlimit:4;stroke-dasharray:none;stroke-opacity:1"
         inkscape:connector-curvature="0" />
      <path
         id="circle4370"
         d="m 171.88281,494.92578 0,71.45899 a 40,40 0 0 0 16.70508,-15.72071 40,40 0 0 0 -14.64062,-54.64258 40,40 0 0 0 -2.06446,-1.0957 z"
         style="opacity:0.69499966;fill:#000000;fill-opacity:1;stroke:none;stroke-width:0.43397856;stroke-linejoin:round;stroke-miterlimit:4;stroke-dasharray:none;stroke-opacity:1"
         inkscape:connector-curvature="0" />
      <path
         id="circle4372"
         d="m 171.88281,429.15039 0,38.80273 a 40,40 0 0 0 12.06446,10.74805 40,40 0 0 0 54.64062,-14.64062 40,40 0 0 0 2.42773,-34.91016 l -69.13281,0 z"
         style="opacity:0.69499966;fill:#000000;fill-opacity:1;stroke:none;stroke-width:0.43397856;stroke-linejoin:round;stroke-miterlimit:4;stroke-dasharray:none;stroke-opacity:1"
         inkscape:connector-curvature="0" />
      <path
         id="circle4376"
         d="m 188.66406,627.31055 a 40,40 0 0 0 -16.78125,4.63281 l 0,70.66992 a 40,40 0 0 0 53.3086,-15.34766 40,40 0 0 0 -14.64063,-54.64062 40,40 0 0 0 -21.88672,-5.31445 z"
         style="opacity:0.69499966;fill:#000000;fill-opacity:1;stroke:none;stroke-width:0.43397856;stroke-linejoin:round;stroke-miterlimit:4;stroke-dasharray:none;stroke-opacity:1"
         inkscape:connector-curvature="0" />
      <path
         style="opacity:0.69499966;fill:#000000;fill-opacity:1;stroke:none;stroke-width:0.43397856;stroke-linejoin:round;stroke-miterlimit:4;stroke-dasharray:none;stroke-opacity:1"
         d="m 260.55035,546.02248 a 40,40 0 0 1 14.64102,54.64101 40,40 0 0 1 -54.64102,14.64102 40,40 0 0 1 -14.64101,-54.64102 40,40 0 0 1 54.64101,-14.64101 z"
         id="circle4378"
         inkscape:connector-curvature="0" />
      <path
         style="opacity:0.69499966;fill:#000000;fill-opacity:1;stroke:none;stroke-width:0.43397856;stroke-linejoin:round;stroke-miterlimit:4;stroke-dasharray:none;stroke-opacity:1"
         d="m 310.55035,459.41994 a 40,40 0 0 1 14.64102,54.64101 40,40 0 0 1 -54.64102,14.64102 40,40 0 0 1 -14.64101,-54.64102 40,40 0 0 1 54.64101,-14.64101 z"
         id="circle4380"
         inkscape:connector-curvature="0" />
      <path
         id="circle4382"
         d="m 306.99023,429.15039 a 40,40 0 0 0 13.56055,12.94922 40,40 0 0 0 53.54688,-12.94922 l -67.10743,0 z"
         style="opacity:0.69499966;fill:#000000;fill-opacity:1;stroke:none;stroke-width:0.43397856;stroke-linejoin:round;stroke-miterlimit:4;stroke-dasharray:none;stroke-opacity:1"
         inkscape:connector-curvature="0" />
      <path
         id="circle4384"
         d="m 275.26562,677.31055 a 40,40 0 0 0 -32.7539,19.95507 40,40 0 0 0 -3.5,31.88477 l 76.2832,0 A 40,40 0 0 0 297.15234,682.625 40,40 0 0 0 275.26562,677.31055 Z"
         style="opacity:0.69499966;fill:#000000;fill-opacity:1;stroke:none;stroke-width:0.43397856;stroke-linejoin:round;stroke-miterlimit:4;stroke-dasharray:none;stroke-opacity:1"
         inkscape:connector-curvature="0" />
      <path
         style="opacity:0.69499966;fill:#000000;fill-opacity:1;stroke:none;stroke-width:0.43397856;stroke-linejoin:round;stroke-miterlimit:4;stroke-dasharray:none;stroke-opacity:1"
         d="m 347.15284,596.02245 a 40,40 0 0 1 14.64102,54.64101 40,40 0 0 1 -54.64102,14.64102 40,40 0 0 1 -14.64101,-54.64102 40,40 0 0 1 54.64101,-14.64101 z"
         id="circle4386"
         inkscape:connector-curvature="0" />
      <path
         style="opacity:0.69499966;fill:#000000;fill-opacity:1;stroke:none;stroke-width:0.43397856;stroke-linejoin:round;stroke-miterlimit:4;stroke-dasharray:none;stroke-opacity:1"
         d="m 397.15284,509.41991 a 40,40 0 0 1 14.64102,54.64101 40,40 0 0 1 -54.64102,14.64102 40,40 0 0 1 -14.64101,-54.64102 40,40 0 0 1 54.64101,-14.64101 z"
         id="circle4388"
         inkscape:connector-curvature="0" />
      <path
         id="circle4390"
         d="m 398.95703,429.15039 a 40,40 0 0 0 -6.44531,8.30859 40,40 0 0 0 14.64062,54.64063 40,40 0 0 0 54.64063,-14.64063 40,40 0 0 0 -6.44727,-48.30859 l -56.38867,0 z"
         style="opacity:0.69499966;fill:#000000;fill-opacity:1;stroke:none;stroke-width:0.43397856;stroke-linejoin:round;stroke-miterlimit:4;stroke-dasharray:none;stroke-opacity:1"
         inkscape:connector-curvature="0" />
      <path
         style="opacity:0.69499966;fill:#000000;fill-opacity:1;stroke:none;stroke-width:0.43397856;stroke-linejoin:round;stroke-miterlimit:4;stroke-dasharray:none;stroke-opacity:1"
         d="m 433.75538,646.02245 a 40,40 0 0 1 14.64102,54.64101 40,40 0 0 1 -54.64102,14.64102 40,40 0 0 1 -14.64101,-54.64102 40,40 0 0 1 54.64101,-14.64101 z"
         id="circle4394"
         inkscape:connector-curvature="0" />
      <path
         id="circle4396"
         d="m 461.86914,554.10547 a 40,40 0 0 0 -32.75391,19.95508 40,40 0 0 0 14.64063,54.64062 40,40 0 0 0 28.12695,4.47656 l 0,-78.23046 a 40,40 0 0 0 -10.01367,-0.8418 z"
         style="opacity:0.69499966;fill:#000000;fill-opacity:1;stroke:none;stroke-width:0.43397856;stroke-linejoin:round;stroke-miterlimit:4;stroke-dasharray:none;stroke-opacity:1"
         inkscape:connector-curvature="0" />
    </g>
  </g>
</svg>
