<?xml version="1.0" encoding="UTF-8" standalone="no"?>
<svg
   xmlns:dc="http://purl.org/dc/elements/1.1/"
   xmlns:cc="http://creativecommons.org/ns#"
   xmlns:rdf="http://www.w3.org/1999/02/22-rdf-syntax-ns#"
   xmlns:svg="http://www.w3.org/2000/svg"
   xmlns="http://www.w3.org/2000/svg"
   xmlns:sodipodi="http://sodipodi.sourceforge.net/DTD/sodipodi-0.dtd"
   xmlns:inkscape="http://www.inkscape.org/namespaces/inkscape"
   width="16"
   height="16"
   viewBox="0 0 16 16"
   id="svg2"
   version="1.1"
   inkscape:version="0.91 r13725"
   sodipodi:docname="tab-close.svg">
  <metadata
     id="metadata10">
    <rdf:RDF>
      <cc:Work
         rdf:about="">
        <dc:format>image/svg+xml</dc:format>
        <dc:type
           rdf:resource="http://purl.org/dc/dcmitype/StillImage" />
        <dc:title></dc:title>
      </cc:Work>
    </rdf:RDF>
  </metadata>
  <defs
     id="defs8" />
  <sodipodi:namedview
     pagecolor="#ffffff"
     bordercolor="#666666"
     borderopacity="1"
     objecttolerance="10"
     gridtolerance="10"
     guidetolerance="10"
     inkscape:pageopacity="0"
     inkscape:pageshadow="2"
     inkscape:window-width="1136"
     inkscape:window-height="704"
     id="namedview6"
     showgrid="false"
     inkscape:zoom="31.375"
     inkscape:cx="8"
     inkscape:cy="8"
     inkscape:window-x="20"
     inkscape:window-y="43"
     inkscape:window-maximized="0"
     inkscape:current-layer="svg2" />
  <path
     d="m 14,11.65657 q 0,0.40404 -0.28283,0.68686 l -1.37374,1.37374 Q 12.0606,14 11.65656,14 11.25252,14 10.9697,13.71717 L 8,10.74747 5.0303,13.71717 Q 4.74748,14 4.34344,14 3.9394,14 3.65657,13.71717 L 2.28283,12.34343 Q 2,12.06061 2,11.65657 2,11.25253 2.28283,10.9697 L 5.25252,8 2.28283,5.0303 Q 2,4.74747 2,4.34343 2,3.93939 2.28283,3.65657 L 3.65657,2.28283 Q 3.9394,2 4.34344,2 4.74748,2 5.0303,2.28283 L 8,5.25253 10.9697,2.28283 Q 11.25252,2 11.65656,2 12.0606,2 12.34343,2.28283 l 1.37374,1.37374 Q 14,3.93939 14,4.34343 14,4.74747 13.71717,5.0303 L 10.74748,8 13.71717,10.9697 Q 14,11.25253 14,11.65657 Z"
     id="path4"
     style="fill:#f0f0f0;fill-opacity:1"
     inkscape:connector-curvature="0" />
</svg>
